<svg aria-hidden="true" style="position: absolute; width: 0; height: 0; overflow: hidden;" version="1.1" xmlns="http://www.w3.org/2000/svg" xmlns:xlink="http://www.w3.org/1999/xlink">
<defs>
<symbol id="icon-Rating" viewBox="0 0 34 32">
<path  stroke-linejoin="miter" stroke-linecap="butt" stroke-miterlimit="4" stroke-width="2.56" d="M13.227 10.020l3.84-7.277 3.84 7.277c0.34 0.644 0.959 1.093 1.675 1.217l8.108 1.403-5.735 5.9c-0.507 0.522-0.744 1.249-0.64 1.97l1.171 8.144-7.384-3.631c-0.653-0.321-1.418-0.321-2.071 0l-7.384 3.631 1.171-8.144c0.104-0.72-0.133-1.448-0.64-1.97l-5.735-5.9 8.108-1.403c0.717-0.124 1.336-0.574 1.675-1.217z"></path>
</symbol>
<symbol id="icon-red-heart" viewBox="0 0 32 32">
<path fill="#e44848" style="fill: var(--color2, #e44848); stroke: var(--color2, #e44848)" stroke="#e44848" stroke-linejoin="round" stroke-linecap="round" stroke-miterlimit="4" stroke-width="3.0667" d="M27.787 6.147c-0.681-0.681-1.49-1.222-2.379-1.591s-1.844-0.559-2.807-0.559-1.917 0.19-2.807 0.559c-0.89 0.369-1.699 0.909-2.38 1.591l-1.413 1.413-1.413-1.413c-1.376-1.376-3.241-2.148-5.187-2.148s-3.811 0.773-5.187 2.148c-1.376 1.376-2.148 3.241-2.148 5.187s0.773 3.811 2.148 5.187l11.787 11.787 11.787-11.787c0.681-0.681 1.222-1.49 1.591-2.38s0.559-1.844 0.559-2.807-0.19-1.917-0.559-2.807c-0.369-0.89-0.909-1.699-1.591-2.38z"></path>
</symbol>
<symbol id="icon-heart" viewBox="0 0 32 32">
<path fill="transparent" stroke="#101828" stroke-linejoin="round" stroke-linecap="round" stroke-miterlimit="4" stroke-width="3.0667" d="M27.787 6.147c-0.681-0.681-1.49-1.222-2.379-1.591s-1.844-0.559-2.807-0.559-1.917 0.19-2.807 0.559c-0.89 0.369-1.699 0.909-2.38 1.591l-1.413 1.413-1.413-1.413c-1.376-1.376-3.241-2.148-5.187-2.148s-3.811 0.773-5.187 2.148c-1.376 1.376-2.148 3.241-2.148 5.187s0.773 3.811 2.148 5.187l11.787 11.787 11.787-11.787c0.681-0.681 1.222-1.49 1.591-2.38s0.559-1.844 0.559-2.807-0.19-1.917-0.559-2.807c-0.369-0.89-0.909-1.699-1.591-2.38z"></path>
</symbol>
<symbol id="icon-conditioner" viewBox="0 0 32 32">
<path stroke-linejoin="round" stroke-linecap="round" stroke-miterlimit="4" stroke-width="2.4" d="M28.571 1.143h-25.143c-0.606 0-1.188 0.241-1.616 0.669s-0.669 1.010-0.669 1.616v11.429c0 0.606 0.241 1.188 0.669 1.616s1.010 0.669 1.616 0.669h25.143c0.606 0 1.188-0.241 1.616-0.669s0.67-1.010 0.67-1.616v-11.429c0-0.606-0.241-1.188-0.67-1.616s-1.010-0.669-1.616-0.669z"></path>
<path stroke-linejoin="round" stroke-linecap="round" stroke-miterlimit="4" stroke-width="2.4" d="M25.143 17.143v-4.571c0-0.606-0.241-1.188-0.67-1.616s-1.010-0.669-1.616-0.669h-13.714c-0.606 0-1.188 0.241-1.616 0.669s-0.669 1.010-0.669 1.616v4.571M5.714 28.572h0.229c0.849 0 1.663-0.337 2.263-0.937s0.937-1.414 0.937-2.263v-2.514M26.286 28.572h-0.229c-0.849 0-1.663-0.337-2.263-0.937s-0.937-1.414-0.937-2.263v-2.514M16 30.857v-8"></path>
</symbol>
<symbol id="icon-CD" viewBox="0 0 32 32">
<path stroke-linejoin="miter" stroke-linecap="butt" stroke-miterlimit="4" stroke-width="2.4" d="M16 28c6.627 0 12-5.373 12-12s-5.373-12-12-12c-6.627 0-12 5.373-12 12s5.373 12 12 12z"></path>
<path stroke-linejoin="miter" stroke-linecap="round" stroke-miterlimit="4" stroke-width="2.4" d="M8.667 16c0-4.050 3.283-7.333 7.333-7.333"></path>
<path stroke-linejoin="miter" stroke-linecap="butt" stroke-miterlimit="4" stroke-width="2.4" d="M16 19.333c1.841 0 3.333-1.492 3.333-3.333s-1.492-3.333-3.333-3.333c-1.841 0-3.333 1.492-3.333 3.333s1.492 3.333 3.333 3.333z"></path>
</symbol>
<symbol id="icon-freezer" viewBox="0 0 32 32">
<path stroke-linejoin="round" stroke-linecap="round" stroke-miterlimit="4" stroke-width="2.0800" d="M23.4 3h-14.793c-1.105 0-2 0.895-2 2v20.387c0 1.104 0.895 2 2 2h14.793c1.104 0 2-0.896 2-2v-20.387c0-1.105-0.896-2-2-2z"></path>
<path stroke-linejoin="round" stroke-linecap="round" stroke-miterlimit="4" stroke-width="2.0800" d="M6.607 13.127h18.787M10.313 10.567v-4.040M10.313 19.44v-4.040M8.427 27.387v0.7c0 0.241 0.095 0.472 0.265 0.643s0.4 0.268 0.642 0.27h1.647c0.242 0 0.475-0.096 0.646-0.268s0.268-0.404 0.268-0.646v-0.7M20.1 27.387v0.7c0 0.242 0.096 0.474 0.268 0.646s0.404 0.268 0.646 0.268h1.653c0.242 0 0.474-0.096 0.646-0.268s0.268-0.404 0.268-0.646v-0.7"></path>
</symbol>
<symbol id="icon-gas" viewBox="0 0 32 32">
<path d="M25.072 13.991c-0.368-0.453-0.816-0.846-1.232-1.239-1.072-0.907-2.288-1.556-3.311-2.508-2.384-2.206-2.912-5.848-1.392-8.644-1.52 0.348-2.848 1.133-3.983 1.995-4.143 3.143-5.775 8.689-3.823 13.449 0.064 0.151 0.128 0.302 0.128 0.499 0 0.332-0.24 0.635-0.56 0.756-0.368 0.151-0.752 0.060-1.056-0.181-0.091-0.071-0.167-0.159-0.224-0.257-1.808-2.161-2.096-5.259-0.88-7.737-2.672 2.055-4.127 5.531-3.919 8.81 0.096 0.756 0.192 1.511 0.464 2.267 0.224 0.907 0.656 1.813 1.136 2.614 1.728 2.614 4.719 4.488 7.935 4.866 3.423 0.408 7.087-0.181 9.71-2.418 2.927-2.508 3.951-6.528 2.448-9.974l-0.208-0.393c-0.336-0.695-1.232-1.904-1.232-1.904zM20.017 23.512c-0.448 0.363-1.184 0.756-1.76 0.907-1.792 0.604-3.583-0.242-4.639-1.239 1.904-0.423 3.039-1.753 3.375-3.098 0.272-1.209-0.24-2.206-0.448-3.37-0.192-1.118-0.16-2.070 0.272-3.113 0.304 0.574 0.624 1.148 1.008 1.602 1.232 1.511 3.167 2.176 3.583 4.231 0.064 0.212 0.096 0.423 0.096 0.65 0.048 1.239-0.528 2.599-1.488 3.43z"></path>
</symbol>
<symbol id="icon-water" viewBox="0 0 32 32">
<path stroke-linejoin="miter" stroke-linecap="butt" stroke-miterlimit="10" stroke-width="2.4" d="M25 20c0 5.523-3.477 9-9 9s-9-3.477-9-9c0-5.927 6.452-13.928 8.431-16.242 0.070-0.082 0.158-0.148 0.256-0.194s0.205-0.069 0.314-0.069c0.108 0 0.215 0.023 0.314 0.069s0.186 0.111 0.256 0.194c1.978 2.314 8.43 10.316 8.43 16.242z"></path>
<path stroke-linejoin="round" stroke-linecap="round" stroke-miterlimit="4" stroke-width="2.4" d="M21.5 20.5c0 1.193-0.474 2.338-1.318 3.182s-1.988 1.318-3.182 1.318"></path>
</symbol>
<symbol id="icon-microvawe" viewBox="0 0 32 32">
<path stroke-linejoin="round" stroke-linecap="round" stroke-miterlimit="4" stroke-width="2.24" d="M29.714 5.714h-27.429c-0.303 0-0.594 0.12-0.808 0.335s-0.335 0.505-0.335 0.808v18.286c0 0.303 0.12 0.594 0.335 0.808s0.505 0.335 0.808 0.335h27.429c0.303 0 0.594-0.12 0.808-0.335s0.335-0.505 0.335-0.808v-18.286c0-0.303-0.12-0.594-0.335-0.808s-0.505-0.335-0.808-0.335z"></path>
<path stroke-linejoin="round" stroke-linecap="round" stroke-miterlimit="4" stroke-width="2.24" d="M25.143 11.428h1.143M25.143 16h1.143M19.428 10.286h-12.571c-0.303 0-0.594 0.12-0.808 0.335s-0.335 0.505-0.335 0.808v9.143c0 0.303 0.12 0.594 0.335 0.808s0.505 0.335 0.808 0.335h12.571c0.303 0 0.594-0.12 0.808-0.335s0.335-0.505 0.335-0.808v-9.143c0-0.303-0.12-0.594-0.335-0.808s-0.505-0.335-0.808-0.335z"></path>
</symbol>
<symbol id="icon-toilet" viewBox="0 0 32 32">
<path d="M24 4c1.939 0 3.269 1.647 4.040 3.313 0.761 1.653 1.224 3.811 1.287 6.145l0.007 0.541v12.667c0 0.18-0.036 0.357-0.106 0.523s-0.173 0.315-0.303 0.439c-0.13 0.125-0.283 0.222-0.451 0.285s-0.347 0.093-0.527 0.086l-0.165-0.019-3.781-0.629-3.781 0.629c-0.16 0.027-0.324 0.024-0.483-0.008l-0.157-0.041-3.579-1.193-3.579 1.193c-0.188 0.063-0.387 0.083-0.583 0.059s-0.385-0.092-0.552-0.197-0.309-0.248-0.414-0.415c-0.105-0.167-0.172-0.356-0.196-0.553l-0.009-0.159v-3.903c-0.708 0.733-1.595 1.236-2.667 1.236-1.939 0-3.269-1.647-4.040-3.313-0.819-1.78-1.293-4.145-1.293-6.687s0.473-4.907 1.293-6.687c0.735-1.592 1.981-3.164 3.78-3.303l0.26-0.011h16zM24 6.667h-12.291c0.12 0.213 0.229 0.429 0.329 0.647 0.821 1.78 1.295 4.145 1.295 6.687v10.817l2.245-0.749c0.274-0.091 0.569-0.091 0.843 0l3.687 1.229 3.673-0.613c0.144-0.024 0.293-0.024 0.437 0l2.448 0.409v-11.093c0-2.245-0.423-4.213-1.049-5.569-0.677-1.471-1.347-1.764-1.617-1.764zM8 6.667c-0.271 0-0.94 0.293-1.617 1.764-0.627 1.356-1.049 3.324-1.049 5.569s0.423 4.213 1.049 5.569c0.677 1.471 1.347 1.764 1.617 1.764s0.94-0.293 1.617-1.764c0.627-1.356 1.049-3.324 1.049-5.569s-0.423-4.213-1.049-5.569c-0.677-1.471-1.347-1.764-1.617-1.764zM8 11.333c0.736 0 1.333 1.193 1.333 2.667s-0.597 2.667-1.333 2.667c-0.736 0-1.333-1.193-1.333-2.667s0.597-2.667 1.333-2.667z"></path>
</symbol>
<symbol id="icon-hob" viewBox="0 0 32 32">
<path fill="none" stroke="#101828" style="stroke: var(--color3, #101828)" stroke-linejoin="miter" stroke-linecap="butt" stroke-miterlimit="4" stroke-width="2.4" d="M12 6.667h16c0.354 0 0.693 0.14 0.943 0.391s0.391 0.589 0.391 0.943v17.333c0 0.354-0.14 0.693-0.391 0.943s-0.589 0.391-0.943 0.391h-16M12 6.667h-8c-0.354 0-0.693 0.14-0.943 0.391s-0.39 0.589-0.39 0.943v17.333c0 0.354 0.14 0.693 0.39 0.943s0.589 0.391 0.943 0.391h8M12 6.667v20"></path>
<path fill="none" stroke="#101828" style="stroke: var(--color3, #101828)" stroke-linejoin="round" stroke-linecap="round" stroke-miterlimit="4" stroke-width="2.4" d="M7.333 11.333v2.667M24.667 10.667l-8 11.333"></path>
<path d="M8.667 18c0-0.736-0.597-1.333-1.333-1.333s-1.333 0.597-1.333 1.333c0 0.736 0.597 1.333 1.333 1.333s1.333-0.597 1.333-1.333z"></path>
<path d="M8.667 22c0-0.736-0.597-1.333-1.333-1.333s-1.333 0.597-1.333 1.333c0 0.736 0.597 1.333 1.333 1.333s1.333-0.597 1.333-1.333z"></path>
</symbol>
<symbol id="icon-radio" viewBox="0 0 32 32">
<path stroke-linejoin="miter" stroke-linecap="butt" stroke-miterlimit="4" stroke-width="2.0800" d="M2.667 18.667c0-5.028 0-7.543 1.563-9.104 1.561-1.563 4.076-1.563 9.104-1.563h5.333c5.028 0 7.543 0 9.104 1.563 1.563 1.561 1.563 4.076 1.563 9.104s0 7.543-1.563 9.104c-1.561 1.563-4.076 1.563-9.104 1.563h-5.333c-5.028 0-7.543 0-9.104-1.563-1.563-1.561-1.563-4.076-1.563-9.104z"></path>
<path stroke-linejoin="miter" stroke-linecap="butt" stroke-miterlimit="4" stroke-width="2.0800" d="M6.667 14.667c0-0.707 0.281-1.386 0.781-1.886s1.178-0.781 1.886-0.781h13.333c0.707 0 1.386 0.281 1.886 0.781s0.781 1.178 0.781 1.886-0.281 1.386-0.781 1.886c-0.5 0.5-1.178 0.781-1.886 0.781h-13.333c-0.707 0-1.386-0.281-1.886-0.781s-0.781-1.178-0.781-1.886zM12 22.667c0 0.53-0.211 1.039-0.586 1.414s-0.884 0.586-1.414 0.586-1.039-0.211-1.414-0.586c-0.375-0.375-0.586-0.884-0.586-1.414s0.211-1.039 0.586-1.414 0.884-0.586 1.414-0.586c0.53 0 1.039 0.211 1.414 0.586s0.586 0.884 0.586 1.414z"></path>
<path stroke-linejoin="miter" stroke-linecap="round" stroke-miterlimit="4" stroke-width="2.0800" d="M20 15.333v2M17.333 22.667h6.667M8.667 8l11.333-5.333"></path>
</symbol>
<symbol id="icon-aclove" viewBox="0 0 44 32">
<path d="M2.518 2.289h11.981c0.101 0 0.196-0.039 0.268-0.109l1.151-1.123c0.335-0.326 0.779-0.506 1.252-0.506h18.168c0.846 0 1.631 0.41 2.101 1.097l2.177 3.186c0.309 0.452 0.337 1.031 0.074 1.51s-0.773 0.777-1.33 0.777h-9.364v0.923h4.796c1.271 0 2.415 0.737 2.914 1.878l2.808 6.42 2.46 0.96c1.314 0.513 2.162 1.735 2.162 3.116v5.946c0 0.887-0.74 1.608-1.649 1.608h-2.862c-0.333 1.968-2.089 3.475-4.2 3.475s-3.867-1.507-4.2-3.475h-15.645c-0.333 1.968-2.090 3.475-4.2 3.475s-3.867-1.507-4.2-3.475h-5.717c-0.808 0-1.466-0.641-1.466-1.43v-21.797c0-1.355 1.129-2.457 2.518-2.457zM35.427 30.091c1.581 0 2.867-1.254 2.867-2.796s-1.286-2.796-2.867-2.796c-1.581 0-2.866 1.254-2.866 2.796s1.286 2.796 2.866 2.796zM28.998 26.616h2.228c0.006-0.034 0.013-0.067 0.020-0.101 0.004-0.023 0.008-0.046 0.013-0.068 0.011-0.053 0.024-0.106 0.037-0.159 0.003-0.011 0.005-0.022 0.008-0.033 0.017-0.063 0.035-0.126 0.055-0.188 0.006-0.018 0.012-0.036 0.018-0.054 0.014-0.043 0.029-0.087 0.045-0.13 0.009-0.023 0.018-0.046 0.027-0.068 0.014-0.038 0.029-0.075 0.045-0.112 0.010-0.024 0.021-0.048 0.032-0.072 0.016-0.035 0.031-0.070 0.048-0.104 0.012-0.024 0.024-0.048 0.037-0.073 0.017-0.033 0.034-0.067 0.052-0.099 0.013-0.024 0.026-0.048 0.040-0.072 0.018-0.033 0.038-0.065 0.057-0.097 0.014-0.023 0.028-0.046 0.042-0.068 0.021-0.033 0.042-0.065 0.064-0.097 0.014-0.021 0.028-0.042 0.043-0.063 0.024-0.034 0.049-0.068 0.075-0.102 0.013-0.018 0.026-0.036 0.039-0.053 0.035-0.045 0.070-0.087 0.105-0.13 0.005-0.006 0.010-0.013 0.016-0.020 0.041-0.049 0.084-0.097 0.127-0.143 0.013-0.015 0.027-0.028 0.041-0.042 0.031-0.032 0.061-0.064 0.093-0.096 0.018-0.017 0.036-0.034 0.054-0.051 0.028-0.027 0.057-0.054 0.087-0.081 0.019-0.017 0.039-0.035 0.060-0.052 0.029-0.025 0.058-0.049 0.087-0.074l0.064-0.050c0.029-0.023 0.059-0.046 0.090-0.069 0.022-0.016 0.044-0.033 0.066-0.048 0.031-0.022 0.062-0.043 0.093-0.065 0.022-0.015 0.045-0.030 0.067-0.044 0.033-0.022 0.067-0.042 0.1-0.063 0.022-0.013 0.043-0.027 0.066-0.040 0.037-0.022 0.075-0.042 0.112-0.063 0.019-0.011 0.038-0.022 0.057-0.032 0.054-0.028 0.108-0.055 0.163-0.082 0.004-0.002 0.008-0.004 0.013-0.006 0.059-0.028 0.119-0.054 0.179-0.079 0.020-0.008 0.039-0.015 0.059-0.023 0.041-0.016 0.083-0.033 0.125-0.048 0.024-0.009 0.048-0.016 0.072-0.025 0.038-0.013 0.077-0.026 0.116-0.038 0.026-0.008 0.052-0.016 0.079-0.023 0.038-0.011 0.076-0.022 0.114-0.032 0.027-0.007 0.054-0.014 0.082-0.021 0.038-0.009 0.076-0.017 0.114-0.026 0.028-0.006 0.056-0.012 0.084-0.017 0.039-0.007 0.078-0.014 0.118-0.020 0.028-0.005 0.055-0.009 0.083-0.013 0.041-0.006 0.082-0.011 0.124-0.016 0.026-0.003 0.053-0.006 0.080-0.009 0.046-0.004 0.092-0.008 0.138-0.010 0.023-0.002 0.045-0.004 0.068-0.004 0.070-0.004 0.139-0.005 0.209-0.005s0.139 0.002 0.209 0.005c0.023 0.001 0.045 0.003 0.068 0.004 0.046 0.003 0.092 0.006 0.138 0.010 0.027 0.002 0.053 0.006 0.080 0.009 0.042 0.005 0.083 0.010 0.124 0.016 0.028 0.004 0.056 0.008 0.084 0.013 0.039 0.006 0.078 0.013 0.117 0.020 0.028 0.005 0.056 0.011 0.084 0.017 0.038 0.008 0.076 0.016 0.114 0.026 0.028 0.007 0.055 0.014 0.082 0.021 0.038 0.010 0.076 0.021 0.114 0.032 0.027 0.008 0.053 0.015 0.079 0.023 0.039 0.012 0.077 0.025 0.116 0.038 0.024 0.009 0.048 0.016 0.072 0.025 0.042 0.016 0.084 0.032 0.125 0.048 0.019 0.008 0.039 0.015 0.059 0.023 0.060 0.025 0.12 0.052 0.179 0.079 0.005 0.002 0.008 0.004 0.013 0.006 0.055 0.026 0.109 0.053 0.163 0.082 0.019 0.010 0.038 0.021 0.057 0.032 0.038 0.021 0.076 0.041 0.112 0.063 0.022 0.013 0.044 0.027 0.066 0.040 0.033 0.021 0.067 0.041 0.1 0.063 0.022 0.015 0.044 0.030 0.067 0.044 0.032 0.022 0.063 0.043 0.094 0.065 0.022 0.016 0.044 0.032 0.066 0.048 0.030 0.023 0.060 0.046 0.090 0.069l0.063 0.050c0.029 0.024 0.058 0.049 0.087 0.074 0.020 0.017 0.040 0.035 0.060 0.052 0.029 0.027 0.058 0.054 0.087 0.081 0.018 0.017 0.036 0.034 0.054 0.051 0.032 0.031 0.062 0.064 0.093 0.096 0.014 0.014 0.028 0.028 0.041 0.042 0.043 0.047 0.086 0.094 0.127 0.143 0.006 0.006 0.010 0.013 0.016 0.020 0.036 0.043 0.071 0.086 0.105 0.13 0.013 0.017 0.026 0.035 0.039 0.053 0.026 0.034 0.051 0.067 0.075 0.102 0.014 0.021 0.028 0.042 0.043 0.063 0.022 0.033 0.043 0.065 0.064 0.097 0.014 0.023 0.028 0.046 0.042 0.068 0.020 0.032 0.039 0.065 0.057 0.097 0.013 0.024 0.027 0.048 0.039 0.072 0.018 0.033 0.036 0.066 0.052 0.099 0.013 0.024 0.025 0.048 0.037 0.073 0.017 0.035 0.032 0.069 0.048 0.104 0.011 0.024 0.022 0.048 0.032 0.072 0.016 0.037 0.031 0.074 0.045 0.112 0.009 0.023 0.018 0.046 0.027 0.068 0.016 0.043 0.031 0.086 0.045 0.13 0.006 0.018 0.013 0.036 0.018 0.054 0.019 0.062 0.038 0.124 0.054 0.188 0.003 0.011 0.006 0.022 0.008 0.033 0.013 0.053 0.026 0.105 0.037 0.159 0.005 0.023 0.009 0.046 0.013 0.068 0.007 0.034 0.014 0.067 0.019 0.101h2.861c0.142 0 0.257-0.112 0.257-0.251v-2.844h-1.085v-1.358h1.085v-1.744c0-0.822-0.505-1.55-1.287-1.855l-2.604-1.016h-9.857v9.068zM28.998 16.19h8.938l-2.508-5.735c-0.28-0.64-0.921-1.053-1.634-1.053h-4.796v6.787zM11.382 30.091c1.581 0 2.866-1.254 2.866-2.796s-1.286-2.796-2.866-2.796c-0.050 0-0.099 0.001-0.148 0.004-1.317 0.065-2.402 1.002-2.661 2.23-0.009 0.046-0.018 0.092-0.026 0.138-0.014 0.092-0.024 0.186-0.029 0.281-0.003 0.048-0.004 0.096-0.004 0.144 0 1.542 1.286 2.796 2.867 2.796zM1.391 22.163h1.085v1.358h-1.085v3.023c0 0.040 0.033 0.072 0.074 0.072h5.716c0.006-0.034 0.013-0.067 0.019-0.1 0.004-0.023 0.008-0.047 0.013-0.070 0.011-0.052 0.023-0.104 0.037-0.155 0.003-0.012 0.006-0.024 0.009-0.036 0.017-0.063 0.035-0.125 0.055-0.187 0.006-0.019 0.013-0.038 0.019-0.056 0.014-0.043 0.029-0.086 0.045-0.128 0.009-0.024 0.018-0.047 0.027-0.070 0.014-0.037 0.029-0.074 0.045-0.11 0.011-0.025 0.022-0.049 0.033-0.074 0.016-0.034 0.031-0.069 0.048-0.103 0.012-0.025 0.024-0.049 0.037-0.074 0.017-0.033 0.034-0.066 0.052-0.099 0.013-0.024 0.027-0.048 0.040-0.072 0.019-0.033 0.038-0.065 0.057-0.097 0.014-0.023 0.028-0.046 0.042-0.069 0.021-0.033 0.042-0.065 0.063-0.096 0.014-0.022 0.028-0.043 0.043-0.064 0.024-0.034 0.049-0.067 0.073-0.1 0.013-0.018 0.027-0.037 0.041-0.055 0.033-0.043 0.067-0.085 0.102-0.127 0.006-0.008 0.012-0.015 0.018-0.022 0.042-0.049 0.084-0.097 0.127-0.143 0.014-0.015 0.028-0.029 0.042-0.043 0.031-0.032 0.061-0.064 0.092-0.094 0.018-0.017 0.036-0.034 0.055-0.052 0.028-0.027 0.057-0.054 0.086-0.080 0.020-0.017 0.040-0.035 0.060-0.053 0.028-0.024 0.057-0.049 0.087-0.073 0.021-0.017 0.042-0.035 0.064-0.052 0.029-0.023 0.059-0.046 0.089-0.068 0.022-0.016 0.044-0.033 0.066-0.048 0.031-0.022 0.062-0.043 0.093-0.065 0.023-0.015 0.045-0.030 0.067-0.045 0.033-0.022 0.066-0.042 0.1-0.062 0.022-0.014 0.044-0.027 0.066-0.040 0.037-0.022 0.074-0.042 0.112-0.063 0.020-0.011 0.038-0.022 0.058-0.032 0.053-0.028 0.106-0.055 0.161-0.080 0.004-0.002 0.009-0.005 0.014-0.007 0.059-0.028 0.119-0.054 0.179-0.079 0.019-0.008 0.040-0.015 0.059-0.023 0.042-0.016 0.083-0.033 0.125-0.048 0.024-0.009 0.048-0.016 0.073-0.025 0.038-0.013 0.076-0.026 0.115-0.038 0.026-0.008 0.053-0.016 0.079-0.023 0.038-0.011 0.076-0.022 0.114-0.032 0.027-0.007 0.055-0.014 0.082-0.021 0.038-0.009 0.076-0.017 0.114-0.026 0.028-0.006 0.056-0.012 0.084-0.017 0.039-0.007 0.078-0.014 0.117-0.020 0.028-0.005 0.055-0.009 0.084-0.013 0.041-0.006 0.082-0.011 0.124-0.016 0.026-0.003 0.053-0.006 0.080-0.009 0.046-0.004 0.092-0.008 0.138-0.010 0.023-0.002 0.045-0.004 0.068-0.004 0.070-0.004 0.139-0.005 0.209-0.005s0.139 0.002 0.209 0.005c0.023 0.001 0.045 0.003 0.068 0.004 0.046 0.003 0.092 0.006 0.138 0.010 0.027 0.002 0.054 0.006 0.080 0.009 0.042 0.005 0.083 0.010 0.124 0.016 0.028 0.004 0.056 0.008 0.083 0.013 0.040 0.006 0.078 0.013 0.118 0.020 0.028 0.005 0.056 0.011 0.084 0.017 0.038 0.008 0.076 0.016 0.114 0.026 0.028 0.007 0.055 0.014 0.082 0.021 0.038 0.010 0.076 0.021 0.114 0.032 0.026 0.008 0.053 0.015 0.079 0.023 0.039 0.012 0.077 0.025 0.115 0.038 0.024 0.009 0.049 0.016 0.073 0.025 0.042 0.016 0.084 0.032 0.125 0.048 0.019 0.008 0.040 0.015 0.059 0.023 0.060 0.025 0.12 0.052 0.179 0.079 0.005 0.002 0.009 0.004 0.014 0.007 0.055 0.026 0.108 0.052 0.161 0.080 0.020 0.010 0.039 0.021 0.058 0.032 0.037 0.021 0.075 0.041 0.112 0.063 0.022 0.013 0.044 0.027 0.066 0.040 0.033 0.020 0.067 0.041 0.1 0.062 0.022 0.015 0.045 0.030 0.067 0.045 0.031 0.021 0.062 0.042 0.093 0.065 0.022 0.016 0.045 0.032 0.066 0.048 0.030 0.023 0.060 0.046 0.089 0.068 0.022 0.017 0.043 0.034 0.064 0.052 0.030 0.024 0.058 0.048 0.087 0.073 0.020 0.017 0.041 0.035 0.060 0.052 0.029 0.027 0.058 0.054 0.087 0.081 0.018 0.017 0.036 0.034 0.054 0.051 0.031 0.031 0.062 0.063 0.093 0.095 0.013 0.014 0.028 0.028 0.041 0.043 0.043 0.047 0.086 0.094 0.127 0.143 0.006 0.007 0.011 0.014 0.017 0.021 0.035 0.042 0.070 0.085 0.104 0.129 0.014 0.017 0.027 0.035 0.040 0.053 0.025 0.034 0.050 0.067 0.074 0.102 0.014 0.021 0.028 0.042 0.043 0.064 0.022 0.032 0.043 0.064 0.063 0.097 0.014 0.023 0.028 0.046 0.042 0.068 0.020 0.032 0.039 0.065 0.057 0.097 0.013 0.024 0.027 0.048 0.040 0.072 0.018 0.033 0.036 0.066 0.053 0.099 0.012 0.024 0.024 0.048 0.036 0.073 0.017 0.035 0.032 0.069 0.048 0.104 0.011 0.024 0.022 0.048 0.032 0.072 0.016 0.037 0.031 0.074 0.046 0.112 0.009 0.023 0.018 0.046 0.027 0.068 0.016 0.043 0.031 0.087 0.045 0.131 0.006 0.018 0.013 0.035 0.018 0.053 0.020 0.062 0.038 0.125 0.055 0.188 0.002 0.010 0.004 0.020 0.007 0.030 0.014 0.054 0.027 0.107 0.038 0.162 0.005 0.022 0.009 0.044 0.013 0.066 0.007 0.034 0.014 0.068 0.020 0.103h12.024v-20.172c0-0.375 0.312-0.679 0.696-0.679h10.059c0.017 0 0.070 0 0.103-0.060s0.004-0.103-0.006-0.116l-2.177-3.186c-0.211-0.308-0.563-0.492-0.943-0.492h-18.168c-0.101 0-0.197 0.039-0.268 0.109l-1.151 1.123c-0.334 0.326-0.779 0.506-1.252 0.506h-11.981c-0.621 0-1.127 0.493-1.127 1.099v17.417z"></path>
<path d="M19.422 7.501h4.401c0.889 0 1.612 0.705 1.612 1.573v14.527c0 0.375-0.312 0.679-0.696 0.679h-6.234c-0.384 0-0.696-0.304-0.696-0.679v-14.527c-0.001-0.868 0.722-1.573 1.612-1.573zM19.201 22.922h4.842v-7.982h-4.842v7.982zM19.201 13.583h4.842v-4.508c0-0.119-0.099-0.216-0.221-0.216h-4.401c-0.122 0-0.221 0.097-0.221 0.216v4.508h0.001zM5.345 7.501h8.51c0.983 0 1.784 0.781 1.784 1.74v3.959c0 0.959-0.8 1.74-1.784 1.74h-8.511c-0.984 0-1.784-0.781-1.784-1.74v-3.959c0.001-0.959 0.801-1.74 1.784-1.74zM4.952 13.2c0 0.211 0.176 0.383 0.392 0.383h8.51c0.216 0 0.392-0.172 0.392-0.383v-3.959c0-0.211-0.176-0.383-0.392-0.383h-8.511c-0.216 0-0.392 0.172-0.392 0.383v3.959h0.001z"></path>
</symbol>
<symbol id="icon-integrated" viewBox="0 0 44 32">
<path d="M2.518 2.289h11.981c0.101 0 0.196-0.039 0.268-0.109l1.151-1.123c0.335-0.326 0.779-0.506 1.252-0.506h18.168c0.846 0 1.631 0.41 2.101 1.097l2.177 3.186c0.309 0.452 0.337 1.031 0.074 1.51s-0.773 0.777-1.33 0.777h-9.364v0.923h4.796c1.271 0 2.415 0.737 2.914 1.878l2.808 6.42 2.46 0.96c1.314 0.513 2.162 1.735 2.162 3.116v5.946c0 0.887-0.74 1.608-1.649 1.608h-2.862c-0.333 1.968-2.089 3.475-4.2 3.475s-3.867-1.507-4.2-3.475h-15.645c-0.333 1.968-2.090 3.475-4.2 3.475s-3.867-1.507-4.2-3.475h-5.717c-0.808 0-1.466-0.641-1.466-1.43v-21.797c0-1.355 1.129-2.457 2.518-2.457zM35.427 30.091c1.581 0 2.867-1.254 2.867-2.796s-1.286-2.796-2.867-2.796c-1.581 0-2.866 1.254-2.866 2.796s1.286 2.796 2.866 2.796zM28.998 26.616h2.228c0.006-0.034 0.013-0.067 0.020-0.101 0.004-0.023 0.008-0.046 0.013-0.068 0.011-0.053 0.024-0.106 0.037-0.159 0.003-0.011 0.005-0.022 0.008-0.033 0.017-0.063 0.035-0.126 0.055-0.188 0.006-0.018 0.012-0.036 0.018-0.054 0.014-0.043 0.029-0.087 0.045-0.13 0.009-0.023 0.018-0.046 0.027-0.068 0.014-0.038 0.029-0.075 0.045-0.112 0.010-0.024 0.021-0.048 0.032-0.072 0.016-0.035 0.031-0.070 0.048-0.104 0.012-0.024 0.024-0.048 0.037-0.073 0.017-0.033 0.034-0.067 0.052-0.099 0.013-0.024 0.026-0.048 0.040-0.072 0.018-0.033 0.038-0.065 0.057-0.097 0.014-0.023 0.028-0.046 0.042-0.068 0.021-0.033 0.042-0.065 0.064-0.097 0.014-0.021 0.028-0.042 0.043-0.063 0.024-0.034 0.049-0.068 0.075-0.102 0.013-0.018 0.026-0.036 0.039-0.053 0.035-0.045 0.070-0.087 0.105-0.13 0.005-0.006 0.010-0.013 0.016-0.020 0.041-0.049 0.084-0.097 0.127-0.143 0.013-0.015 0.027-0.028 0.041-0.042 0.031-0.032 0.061-0.064 0.093-0.096 0.018-0.017 0.036-0.034 0.054-0.051 0.028-0.027 0.057-0.054 0.087-0.081 0.019-0.017 0.039-0.035 0.060-0.052 0.029-0.025 0.058-0.049 0.087-0.074l0.064-0.050c0.029-0.023 0.059-0.046 0.090-0.069 0.022-0.016 0.044-0.033 0.066-0.048 0.031-0.022 0.062-0.043 0.093-0.065 0.022-0.015 0.045-0.030 0.067-0.044 0.033-0.022 0.067-0.042 0.1-0.063 0.022-0.013 0.043-0.027 0.066-0.040 0.037-0.022 0.075-0.042 0.112-0.063 0.019-0.011 0.038-0.022 0.057-0.032 0.054-0.028 0.108-0.055 0.163-0.082 0.004-0.002 0.008-0.004 0.013-0.006 0.059-0.028 0.119-0.054 0.179-0.079 0.020-0.008 0.039-0.015 0.059-0.023 0.041-0.016 0.083-0.033 0.125-0.048 0.024-0.009 0.048-0.016 0.072-0.025 0.038-0.013 0.077-0.026 0.116-0.038 0.026-0.008 0.052-0.016 0.079-0.023 0.038-0.011 0.076-0.022 0.114-0.032 0.027-0.007 0.054-0.014 0.082-0.021 0.038-0.009 0.076-0.017 0.114-0.026 0.028-0.006 0.056-0.012 0.084-0.017 0.039-0.007 0.078-0.014 0.118-0.020 0.028-0.005 0.055-0.009 0.083-0.013 0.041-0.006 0.082-0.011 0.124-0.016 0.026-0.003 0.053-0.006 0.080-0.009 0.046-0.004 0.092-0.008 0.138-0.010 0.023-0.002 0.045-0.004 0.068-0.004 0.070-0.004 0.139-0.005 0.209-0.005s0.139 0.002 0.209 0.005c0.023 0.001 0.045 0.003 0.068 0.004 0.046 0.003 0.092 0.006 0.138 0.010 0.027 0.002 0.053 0.006 0.080 0.009 0.042 0.005 0.083 0.010 0.124 0.016 0.028 0.004 0.056 0.008 0.084 0.013 0.039 0.006 0.078 0.013 0.117 0.020 0.028 0.005 0.056 0.011 0.084 0.017 0.038 0.008 0.076 0.016 0.114 0.026 0.028 0.007 0.055 0.014 0.082 0.021 0.038 0.010 0.076 0.021 0.114 0.032 0.027 0.008 0.053 0.015 0.079 0.023 0.039 0.012 0.077 0.025 0.116 0.038 0.024 0.009 0.048 0.016 0.072 0.025 0.042 0.016 0.084 0.032 0.125 0.048 0.019 0.008 0.039 0.015 0.059 0.023 0.060 0.025 0.12 0.052 0.179 0.079 0.005 0.002 0.008 0.004 0.013 0.006 0.055 0.026 0.109 0.053 0.163 0.082 0.019 0.010 0.038 0.021 0.057 0.032 0.038 0.021 0.076 0.041 0.112 0.063 0.022 0.013 0.044 0.027 0.066 0.040 0.033 0.021 0.067 0.041 0.1 0.063 0.022 0.015 0.044 0.030 0.067 0.044 0.032 0.022 0.063 0.043 0.094 0.065 0.022 0.016 0.044 0.032 0.066 0.048 0.030 0.023 0.060 0.046 0.090 0.069l0.063 0.050c0.029 0.024 0.058 0.049 0.087 0.074 0.020 0.017 0.040 0.035 0.060 0.052 0.029 0.027 0.058 0.054 0.087 0.081 0.018 0.017 0.036 0.034 0.054 0.051 0.032 0.031 0.062 0.064 0.093 0.096 0.014 0.014 0.028 0.028 0.041 0.042 0.043 0.047 0.086 0.094 0.127 0.143 0.006 0.006 0.010 0.013 0.016 0.020 0.036 0.043 0.071 0.086 0.105 0.13 0.013 0.017 0.026 0.035 0.039 0.053 0.026 0.034 0.051 0.067 0.075 0.102 0.014 0.021 0.028 0.042 0.043 0.063 0.022 0.033 0.043 0.065 0.064 0.097 0.014 0.023 0.028 0.046 0.042 0.068 0.020 0.032 0.039 0.065 0.057 0.097 0.013 0.024 0.027 0.048 0.039 0.072 0.018 0.033 0.036 0.066 0.052 0.099 0.013 0.024 0.025 0.048 0.037 0.073 0.017 0.035 0.032 0.069 0.048 0.104 0.011 0.024 0.022 0.048 0.032 0.072 0.016 0.037 0.031 0.074 0.045 0.112 0.009 0.023 0.018 0.046 0.027 0.068 0.016 0.043 0.031 0.086 0.045 0.13 0.006 0.018 0.013 0.036 0.018 0.054 0.019 0.062 0.038 0.124 0.054 0.188 0.003 0.011 0.006 0.022 0.008 0.033 0.013 0.053 0.026 0.105 0.037 0.159 0.005 0.023 0.009 0.046 0.013 0.068 0.007 0.034 0.014 0.067 0.019 0.101h2.861c0.142 0 0.257-0.112 0.257-0.251v-2.844h-1.085v-1.358h1.085v-1.744c0-0.822-0.505-1.55-1.287-1.855l-2.604-1.016h-9.857v9.068zM28.998 16.19h8.938l-2.508-5.735c-0.28-0.64-0.921-1.053-1.634-1.053h-4.796v6.787zM11.382 30.091c1.581 0 2.866-1.254 2.866-2.796s-1.286-2.796-2.866-2.796c-0.050 0-0.099 0.001-0.148 0.004-1.317 0.065-2.402 1.002-2.661 2.23-0.009 0.046-0.018 0.092-0.026 0.138-0.014 0.092-0.024 0.186-0.029 0.281-0.003 0.048-0.004 0.096-0.004 0.144 0 1.542 1.286 2.796 2.867 2.796zM1.391 22.163h1.085v1.358h-1.085v3.023c0 0.040 0.033 0.072 0.074 0.072h5.716c0.006-0.034 0.013-0.067 0.019-0.1 0.004-0.023 0.008-0.047 0.013-0.070 0.011-0.052 0.023-0.104 0.037-0.155 0.003-0.012 0.006-0.024 0.009-0.036 0.017-0.063 0.035-0.125 0.055-0.187 0.006-0.019 0.013-0.038 0.019-0.056 0.014-0.043 0.029-0.086 0.045-0.128 0.009-0.024 0.018-0.047 0.027-0.070 0.014-0.037 0.029-0.074 0.045-0.11 0.011-0.025 0.022-0.049 0.033-0.074 0.016-0.034 0.031-0.069 0.048-0.103 0.012-0.025 0.024-0.049 0.037-0.074 0.017-0.033 0.034-0.066 0.052-0.099 0.013-0.024 0.027-0.048 0.040-0.072 0.019-0.033 0.038-0.065 0.057-0.097 0.014-0.023 0.028-0.046 0.042-0.069 0.021-0.033 0.042-0.065 0.063-0.096 0.014-0.022 0.028-0.043 0.043-0.064 0.024-0.034 0.049-0.067 0.073-0.1 0.013-0.018 0.027-0.037 0.041-0.055 0.033-0.043 0.067-0.085 0.102-0.127 0.006-0.008 0.012-0.015 0.018-0.022 0.042-0.049 0.084-0.097 0.127-0.143 0.014-0.015 0.028-0.029 0.042-0.043 0.031-0.032 0.061-0.064 0.092-0.094 0.018-0.017 0.036-0.034 0.055-0.052 0.028-0.027 0.057-0.054 0.086-0.080 0.020-0.017 0.040-0.035 0.060-0.053 0.028-0.024 0.057-0.049 0.087-0.073 0.021-0.017 0.042-0.035 0.064-0.052 0.029-0.023 0.059-0.046 0.089-0.068 0.022-0.016 0.044-0.033 0.066-0.048 0.031-0.022 0.062-0.043 0.093-0.065 0.023-0.015 0.045-0.030 0.067-0.045 0.033-0.022 0.066-0.042 0.1-0.062 0.022-0.014 0.044-0.027 0.066-0.040 0.037-0.022 0.074-0.042 0.112-0.063 0.020-0.011 0.038-0.022 0.058-0.032 0.053-0.028 0.106-0.055 0.161-0.080 0.004-0.002 0.009-0.005 0.014-0.007 0.059-0.028 0.119-0.054 0.179-0.079 0.019-0.008 0.040-0.015 0.059-0.023 0.042-0.016 0.083-0.033 0.125-0.048 0.024-0.009 0.048-0.016 0.073-0.025 0.038-0.013 0.076-0.026 0.115-0.038 0.026-0.008 0.053-0.016 0.079-0.023 0.038-0.011 0.076-0.022 0.114-0.032 0.027-0.007 0.055-0.014 0.082-0.021 0.038-0.009 0.076-0.017 0.114-0.026 0.028-0.006 0.056-0.012 0.084-0.017 0.039-0.007 0.078-0.014 0.117-0.020 0.028-0.005 0.055-0.009 0.084-0.013 0.041-0.006 0.082-0.011 0.124-0.016 0.026-0.003 0.053-0.006 0.080-0.009 0.046-0.004 0.092-0.008 0.138-0.010 0.023-0.002 0.045-0.004 0.068-0.004 0.070-0.004 0.139-0.005 0.209-0.005s0.139 0.002 0.209 0.005c0.023 0.001 0.045 0.003 0.068 0.004 0.046 0.003 0.092 0.006 0.138 0.010 0.027 0.002 0.054 0.006 0.080 0.009 0.042 0.005 0.083 0.010 0.124 0.016 0.028 0.004 0.056 0.008 0.083 0.013 0.040 0.006 0.078 0.013 0.118 0.020 0.028 0.005 0.056 0.011 0.084 0.017 0.038 0.008 0.076 0.016 0.114 0.026 0.028 0.007 0.055 0.014 0.082 0.021 0.038 0.010 0.076 0.021 0.114 0.032 0.026 0.008 0.053 0.015 0.079 0.023 0.039 0.012 0.077 0.025 0.115 0.038 0.024 0.009 0.049 0.016 0.073 0.025 0.042 0.016 0.084 0.032 0.125 0.048 0.019 0.008 0.040 0.015 0.059 0.023 0.060 0.025 0.12 0.052 0.179 0.079 0.005 0.002 0.009 0.004 0.014 0.007 0.055 0.026 0.108 0.052 0.161 0.080 0.020 0.010 0.039 0.021 0.058 0.032 0.037 0.021 0.075 0.041 0.112 0.063 0.022 0.013 0.044 0.027 0.066 0.040 0.033 0.020 0.067 0.041 0.1 0.062 0.022 0.015 0.045 0.030 0.067 0.045 0.031 0.021 0.062 0.042 0.093 0.065 0.022 0.016 0.045 0.032 0.066 0.048 0.030 0.023 0.060 0.046 0.089 0.068 0.022 0.017 0.043 0.034 0.064 0.052 0.030 0.024 0.058 0.048 0.087 0.073 0.020 0.017 0.041 0.035 0.060 0.052 0.029 0.027 0.058 0.054 0.087 0.081 0.018 0.017 0.036 0.034 0.054 0.051 0.031 0.031 0.062 0.063 0.093 0.095 0.013 0.014 0.028 0.028 0.041 0.043 0.043 0.047 0.086 0.094 0.127 0.143 0.006 0.007 0.011 0.014 0.017 0.021 0.035 0.042 0.070 0.085 0.104 0.129 0.014 0.017 0.027 0.035 0.040 0.053 0.025 0.034 0.050 0.067 0.074 0.102 0.014 0.021 0.028 0.042 0.043 0.064 0.022 0.032 0.043 0.064 0.063 0.097 0.014 0.023 0.028 0.046 0.042 0.068 0.020 0.032 0.039 0.065 0.057 0.097 0.013 0.024 0.027 0.048 0.040 0.072 0.018 0.033 0.036 0.066 0.053 0.099 0.012 0.024 0.024 0.048 0.036 0.073 0.017 0.035 0.032 0.069 0.048 0.104 0.011 0.024 0.022 0.048 0.032 0.072 0.016 0.037 0.031 0.074 0.046 0.112 0.009 0.023 0.018 0.046 0.027 0.068 0.016 0.043 0.031 0.087 0.045 0.131 0.006 0.018 0.013 0.035 0.018 0.053 0.020 0.062 0.038 0.125 0.055 0.188 0.002 0.010 0.004 0.020 0.007 0.030 0.014 0.054 0.027 0.107 0.038 0.162 0.005 0.022 0.009 0.044 0.013 0.066 0.007 0.034 0.014 0.068 0.020 0.103h12.024v-20.172c0-0.375 0.312-0.679 0.696-0.679h10.059c0.017 0 0.070 0 0.103-0.060s0.004-0.103-0.006-0.116l-2.177-3.186c-0.211-0.308-0.563-0.492-0.943-0.492h-18.168c-0.101 0-0.197 0.039-0.268 0.109l-1.151 1.123c-0.334 0.326-0.779 0.506-1.252 0.506h-11.981c-0.621 0-1.127 0.493-1.127 1.099v17.417z"></path>
<path d="M19.422 7.501h4.401c0.889 0 1.612 0.705 1.612 1.573v14.527c0 0.375-0.312 0.679-0.696 0.679h-6.234c-0.384 0-0.696-0.304-0.696-0.679v-14.527c-0.001-0.868 0.722-1.573 1.612-1.573zM19.201 22.922h4.842v-7.982h-4.842v7.982zM19.201 13.583h4.842v-4.508c0-0.119-0.099-0.216-0.221-0.216h-4.401c-0.122 0-0.221 0.097-0.221 0.216l0.001 4.508z"></path>
</symbol>
<symbol id="icon-van" viewBox="0 0 43 32">
<path d="M5.584 1.4h9.652c0.082 0 0.158-0.031 0.216-0.087l0.927-0.905c0.27-0.263 0.628-0.408 1.009-0.408h14.635c0.681 0 1.314 0.33 1.693 0.884l1.754 2.567c0.249 0.364 0.272 0.83 0.060 1.216s-0.622 0.626-1.071 0.626h-7.543v0.744h3.863c1.024 0 1.945 0.594 2.347 1.513l2.262 5.172 1.981 0.773c1.058 0.413 1.742 1.398 1.742 2.51v4.79c0 0.714-0.596 1.296-1.328 1.296h-2.306c-0.268 1.586-1.683 2.799-3.383 2.799s-3.115-1.214-3.383-2.799h-12.603c-0.268 1.586-1.683 2.799-3.383 2.799s-3.115-1.214-3.383-2.799h-4.605c-0.651 0-1.181-0.517-1.181-1.152v-17.559c0-1.091 0.91-1.979 2.028-1.979zM32.094 23.795c1.273 0 2.309-1.011 2.309-2.253s-1.036-2.253-2.309-2.253c-1.273 0-2.309 1.011-2.309 2.253s1.036 2.253 2.309 2.253zM26.915 20.996h1.794c0.005-0.028 0.010-0.054 0.016-0.081 0.004-0.018 0.007-0.037 0.011-0.055 0.009-0.043 0.019-0.085 0.030-0.128 0.002-0.009 0.004-0.017 0.007-0.026 0.014-0.051 0.028-0.101 0.044-0.151 0.004-0.015 0.010-0.029 0.015-0.044 0.012-0.035 0.024-0.070 0.036-0.105 0.007-0.018 0.014-0.037 0.022-0.055 0.012-0.030 0.023-0.060 0.036-0.090 0.008-0.020 0.017-0.039 0.026-0.058 0.013-0.028 0.025-0.056 0.039-0.084 0.010-0.020 0.019-0.039 0.030-0.059 0.013-0.027 0.028-0.054 0.042-0.080 0.010-0.019 0.021-0.038 0.032-0.058 0.015-0.026 0.030-0.052 0.046-0.078 0.011-0.018 0.022-0.037 0.034-0.055 0.017-0.026 0.034-0.052 0.052-0.078 0.012-0.017 0.023-0.034 0.035-0.051 0.019-0.028 0.039-0.055 0.060-0.082 0.010-0.014 0.021-0.029 0.031-0.043 0.028-0.036 0.056-0.070 0.085-0.105 0.004-0.005 0.008-0.011 0.013-0.016 0.033-0.039 0.068-0.078 0.103-0.115 0.011-0.012 0.022-0.023 0.033-0.034 0.025-0.026 0.049-0.052 0.075-0.077 0.014-0.014 0.029-0.028 0.043-0.041 0.023-0.022 0.046-0.044 0.070-0.065 0.016-0.014 0.032-0.028 0.048-0.042 0.023-0.020 0.047-0.040 0.070-0.060l0.051-0.041c0.024-0.019 0.048-0.037 0.072-0.056 0.017-0.013 0.035-0.026 0.053-0.039 0.025-0.018 0.050-0.035 0.075-0.053 0.018-0.012 0.036-0.024 0.054-0.036 0.026-0.017 0.054-0.034 0.081-0.051 0.017-0.011 0.035-0.021 0.053-0.032 0.030-0.017 0.060-0.034 0.091-0.051 0.016-0.009 0.031-0.017 0.046-0.026 0.043-0.023 0.087-0.045 0.131-0.066 0.004-0.001 0.007-0.003 0.010-0.005 0.048-0.022 0.096-0.044 0.144-0.064 0.016-0.007 0.032-0.012 0.048-0.019 0.033-0.013 0.067-0.026 0.101-0.039 0.019-0.007 0.039-0.013 0.058-0.020 0.031-0.011 0.062-0.021 0.093-0.031 0.021-0.006 0.042-0.013 0.064-0.019 0.030-0.009 0.061-0.017 0.091-0.025 0.022-0.006 0.044-0.011 0.066-0.017 0.030-0.007 0.061-0.014 0.092-0.021 0.022-0.005 0.045-0.010 0.068-0.014 0.031-0.006 0.063-0.011 0.095-0.016 0.022-0.004 0.044-0.007 0.067-0.011 0.033-0.005 0.066-0.009 0.1-0.013 0.021-0.002 0.043-0.005 0.064-0.007 0.037-0.003 0.074-0.006 0.111-0.008 0.018-0.001 0.036-0.003 0.055-0.004 0.056-0.003 0.112-0.004 0.168-0.004s0.112 0.001 0.168 0.004c0.018 0 0.036 0.002 0.055 0.004 0.037 0.002 0.075 0.005 0.111 0.008 0.022 0.002 0.043 0.005 0.064 0.007 0.034 0.004 0.067 0.008 0.1 0.013 0.023 0.003 0.045 0.006 0.067 0.011 0.032 0.005 0.063 0.011 0.095 0.016 0.023 0.004 0.045 0.009 0.068 0.014 0.031 0.007 0.061 0.013 0.092 0.021 0.022 0.005 0.044 0.011 0.066 0.017 0.031 0.008 0.061 0.017 0.091 0.025 0.022 0.006 0.043 0.012 0.064 0.019 0.031 0.010 0.062 0.020 0.093 0.031 0.019 0.007 0.039 0.013 0.058 0.020 0.034 0.013 0.068 0.026 0.101 0.039 0.016 0.007 0.032 0.012 0.047 0.019 0.048 0.020 0.097 0.041 0.144 0.064 0.004 0.002 0.007 0.004 0.010 0.005 0.044 0.021 0.087 0.043 0.131 0.066 0.015 0.008 0.031 0.017 0.046 0.026 0.031 0.017 0.061 0.033 0.091 0.051 0.018 0.011 0.035 0.021 0.053 0.032 0.027 0.017 0.054 0.033 0.081 0.051 0.018 0.012 0.036 0.024 0.054 0.036 0.026 0.017 0.051 0.035 0.075 0.053 0.018 0.013 0.036 0.026 0.053 0.039 0.024 0.018 0.048 0.037 0.072 0.056l0.051 0.041c0.024 0.020 0.047 0.039 0.070 0.060 0.016 0.014 0.032 0.028 0.048 0.042 0.024 0.021 0.047 0.043 0.070 0.065 0.014 0.014 0.029 0.027 0.043 0.041 0.026 0.025 0.050 0.051 0.075 0.077 0.011 0.011 0.022 0.022 0.033 0.034 0.035 0.038 0.069 0.076 0.103 0.115 0.004 0.005 0.008 0.011 0.013 0.016 0.029 0.035 0.057 0.069 0.085 0.105 0.011 0.014 0.021 0.028 0.031 0.043 0.021 0.027 0.041 0.054 0.060 0.082 0.012 0.017 0.023 0.034 0.035 0.051 0.017 0.026 0.035 0.052 0.052 0.078 0.011 0.018 0.022 0.037 0.034 0.055 0.016 0.026 0.031 0.052 0.046 0.078 0.011 0.019 0.022 0.038 0.032 0.058 0.014 0.026 0.029 0.053 0.042 0.080 0.010 0.020 0.020 0.039 0.030 0.059 0.013 0.028 0.026 0.055 0.039 0.084 0.009 0.019 0.018 0.038 0.026 0.058 0.013 0.030 0.025 0.060 0.036 0.090 0.008 0.018 0.015 0.037 0.022 0.055 0.013 0.035 0.025 0.070 0.036 0.105 0.005 0.015 0.010 0.029 0.015 0.044 0.016 0.050 0.031 0.1 0.044 0.151 0.003 0.009 0.005 0.017 0.007 0.026 0.011 0.042 0.021 0.085 0.030 0.128 0.004 0.018 0.007 0.037 0.011 0.055 0.005 0.027 0.011 0.054 0.016 0.081h2.305c0.114 0 0.207-0.091 0.207-0.202v-2.291h-0.874v-1.094h0.874v-1.405c0-0.662-0.407-1.249-1.037-1.495l-2.098-0.818h-7.94v7.305zM26.915 12.598h7.2l-2.020-4.62c-0.226-0.515-0.742-0.848-1.316-0.848h-3.863v5.468zM12.725 23.795c1.273 0 2.309-1.011 2.309-2.253s-1.036-2.253-2.309-2.253c-0.040 0-0.079 0.001-0.119 0.003-1.061 0.052-1.935 0.807-2.143 1.796-0.008 0.037-0.015 0.074-0.021 0.111-0.012 0.074-0.019 0.15-0.023 0.227-0.002 0.038-0.003 0.077-0.003 0.116 0 1.242 1.036 2.253 2.309 2.253zM4.676 17.409h0.874v1.094h-0.874v2.435c0 0.032 0.027 0.058 0.060 0.058h4.604c0.005-0.027 0.010-0.054 0.016-0.081 0.004-0.019 0.007-0.038 0.011-0.056 0.009-0.042 0.019-0.084 0.030-0.125 0.003-0.010 0.004-0.020 0.007-0.029 0.013-0.051 0.028-0.101 0.044-0.15 0.005-0.015 0.010-0.031 0.015-0.046 0.012-0.035 0.023-0.069 0.036-0.103 0.007-0.019 0.015-0.038 0.022-0.056 0.012-0.030 0.024-0.060 0.036-0.089 0.009-0.020 0.017-0.040 0.026-0.059 0.013-0.028 0.025-0.055 0.039-0.083 0.009-0.020 0.020-0.040 0.030-0.059 0.013-0.027 0.027-0.053 0.042-0.080 0.011-0.019 0.021-0.038 0.032-0.058 0.015-0.026 0.030-0.052 0.046-0.078 0.011-0.019 0.022-0.037 0.034-0.056 0.017-0.026 0.034-0.052 0.051-0.077 0.011-0.017 0.023-0.035 0.035-0.052 0.019-0.028 0.039-0.054 0.059-0.081 0.011-0.015 0.022-0.030 0.033-0.044 0.027-0.035 0.054-0.069 0.082-0.102 0.005-0.006 0.009-0.012 0.014-0.018 0.034-0.039 0.068-0.078 0.103-0.115 0.011-0.012 0.023-0.023 0.034-0.035 0.025-0.026 0.049-0.051 0.074-0.076 0.014-0.014 0.029-0.028 0.044-0.042 0.023-0.022 0.046-0.043 0.069-0.065 0.016-0.014 0.032-0.028 0.048-0.042 0.023-0.020 0.046-0.039 0.070-0.059 0.017-0.014 0.034-0.028 0.052-0.041 0.023-0.018 0.048-0.037 0.072-0.055 0.018-0.013 0.035-0.026 0.053-0.039 0.025-0.018 0.050-0.035 0.075-0.052 0.018-0.012 0.036-0.024 0.054-0.036 0.026-0.017 0.053-0.034 0.080-0.050 0.018-0.011 0.035-0.022 0.053-0.032 0.030-0.017 0.060-0.034 0.090-0.051 0.016-0.009 0.031-0.017 0.047-0.026 0.043-0.023 0.086-0.044 0.13-0.065 0.004-0.002 0.007-0.004 0.011-0.006 0.048-0.022 0.096-0.044 0.144-0.064 0.016-0.007 0.032-0.012 0.047-0.019 0.034-0.013 0.067-0.026 0.101-0.039 0.019-0.007 0.039-0.013 0.059-0.020 0.030-0.011 0.061-0.021 0.093-0.031 0.021-0.006 0.043-0.013 0.064-0.019 0.030-0.009 0.061-0.017 0.091-0.025 0.022-0.006 0.044-0.011 0.066-0.017 0.030-0.007 0.061-0.014 0.092-0.021 0.022-0.005 0.045-0.010 0.068-0.014 0.031-0.006 0.063-0.011 0.095-0.016 0.022-0.004 0.044-0.007 0.067-0.011 0.033-0.005 0.066-0.009 0.099-0.013 0.021-0.002 0.043-0.005 0.064-0.007 0.037-0.003 0.074-0.006 0.111-0.008 0.018-0.001 0.036-0.003 0.055-0.004 0.056-0.003 0.112-0.004 0.168-0.004s0.112 0.001 0.168 0.004c0.018 0 0.036 0.002 0.055 0.004 0.037 0.002 0.074 0.005 0.111 0.008 0.022 0.002 0.043 0.005 0.064 0.007 0.034 0.004 0.067 0.008 0.1 0.013 0.023 0.003 0.045 0.006 0.067 0.011 0.032 0.005 0.063 0.011 0.095 0.016 0.023 0.004 0.045 0.009 0.068 0.014 0.031 0.007 0.061 0.013 0.092 0.021 0.022 0.005 0.044 0.011 0.066 0.017 0.030 0.008 0.061 0.017 0.091 0.025 0.021 0.006 0.043 0.012 0.064 0.019 0.031 0.010 0.062 0.020 0.093 0.031 0.020 0.007 0.039 0.013 0.059 0.020 0.034 0.013 0.067 0.026 0.101 0.039 0.016 0.007 0.032 0.012 0.048 0.019 0.048 0.020 0.097 0.041 0.144 0.064 0.004 0.002 0.008 0.004 0.011 0.006 0.044 0.021 0.087 0.042 0.13 0.065 0.016 0.008 0.031 0.017 0.047 0.026 0.030 0.017 0.061 0.033 0.090 0.051 0.018 0.011 0.035 0.021 0.053 0.032 0.027 0.016 0.054 0.033 0.080 0.050 0.018 0.012 0.036 0.024 0.054 0.036 0.025 0.017 0.050 0.034 0.075 0.052 0.018 0.013 0.036 0.026 0.053 0.039 0.024 0.018 0.048 0.037 0.072 0.055 0.018 0.014 0.035 0.028 0.052 0.041 0.024 0.019 0.047 0.039 0.070 0.059 0.016 0.014 0.033 0.028 0.048 0.042 0.024 0.021 0.047 0.043 0.070 0.065 0.014 0.014 0.029 0.027 0.043 0.041 0.025 0.025 0.050 0.051 0.075 0.077 0.011 0.011 0.022 0.023 0.033 0.035 0.035 0.038 0.069 0.076 0.103 0.115 0.004 0.006 0.009 0.011 0.013 0.017 0.028 0.034 0.057 0.069 0.083 0.104 0.011 0.014 0.022 0.028 0.032 0.043 0.020 0.027 0.040 0.054 0.060 0.082 0.012 0.017 0.023 0.034 0.034 0.051 0.018 0.026 0.034 0.052 0.051 0.078 0.012 0.018 0.023 0.037 0.034 0.055 0.016 0.026 0.031 0.052 0.046 0.078 0.011 0.019 0.021 0.038 0.032 0.058 0.015 0.026 0.029 0.053 0.043 0.080 0.010 0.020 0.019 0.039 0.029 0.059 0.013 0.028 0.026 0.056 0.039 0.084 0.009 0.019 0.018 0.038 0.026 0.058 0.013 0.030 0.025 0.060 0.037 0.090 0.007 0.018 0.014 0.037 0.021 0.055 0.013 0.035 0.025 0.070 0.036 0.105 0.005 0.015 0.010 0.028 0.015 0.043 0.016 0.050 0.030 0.101 0.044 0.151 0.002 0.008 0.004 0.016 0.005 0.024 0.011 0.043 0.021 0.087 0.031 0.13 0.004 0.017 0.007 0.035 0.010 0.053 0.005 0.028 0.011 0.055 0.016 0.083h9.686v-16.25c0-0.302 0.251-0.547 0.56-0.547h8.103c0.014 0 0.057 0 0.083-0.049s0.003-0.083-0.005-0.094l-1.754-2.567c-0.17-0.248-0.454-0.397-0.76-0.397h-14.635c-0.082 0-0.158 0.031-0.216 0.087l-0.927 0.905c-0.269 0.263-0.628 0.408-1.009 0.408h-9.652c-0.5 0-0.907 0.397-0.907 0.885v14.030z"></path>
<path d="M7.861 5.598h6.856c0.792 0 1.437 0.629 1.437 1.402v3.189c0 0.773-0.645 1.402-1.437 1.402h-6.856c-0.792 0-1.437-0.629-1.437-1.402v-3.189c0-0.773 0.645-1.402 1.437-1.402zM7.545 10.189c0 0.17 0.142 0.308 0.316 0.308h6.856c0.174 0 0.316-0.138 0.316-0.308v-3.189c0-0.17-0.142-0.308-0.316-0.308h-6.856c-0.174 0-0.316 0.138-0.316 0.308l0 3.189z"></path>
</symbol>
<symbol id="icon-shower" viewBox="0 0 31 32">
<path fill="white" stroke="#101828" stroke-linejoin="round" stroke-linecap="round" stroke-miterlimit="4" stroke-width="1.9394" d="M5.172 5.657l3.232 3.232M17.454 8.889c-1.204-1.18-2.826-1.837-4.512-1.829s-3.301 0.682-4.493 1.874c-1.192 1.192-1.866 2.807-1.874 4.493s0.649 3.308 1.829 4.512M19.394 6.949l-12.929 12.929M18.101 22.465v0.013M12.929 21.172v0.013M16.808 17.293v0.013M20.687 13.414v0.013M14.222 26.343v0.013M21.98 18.586v0.013M25.859 14.707v0.013"></path>
</symbol>
<symbol id="icon-AC" viewBox="0 0 40 32">
<path fill="#ffffff" stroke="#101828" d="M19.38 0c-1.876 0-3.695 0.641-5.146 1.812s-2.446 2.801-2.814 4.613l-0.145 0.719c-0.039 0.161-0.044 0.328-0.016 0.49s0.090 0.318 0.18 0.457c0.091 0.139 0.209 0.259 0.347 0.352s0.295 0.158 0.459 0.19c0.165 0.032 0.334 0.032 0.498-0.002s0.32-0.099 0.458-0.193c0.138-0.094 0.255-0.214 0.345-0.354s0.15-0.296 0.177-0.459l0.148-0.716c0.277-1.343 1.051-2.537 2.171-3.351s2.507-1.189 3.892-1.054c1.385 0.135 2.67 0.772 3.606 1.787s1.456 2.335 1.459 3.706c0 1.469-0.593 2.878-1.647 3.917s-2.486 1.623-3.978 1.624h-18.125c-0.332 0-0.649 0.13-0.884 0.36s-0.366 0.544-0.366 0.87c0 0.326 0.132 0.639 0.366 0.87s0.552 0.36 0.884 0.36h18.125c2.12-0.051 4.136-0.916 5.617-2.41s2.311-3.499 2.311-5.587-0.828-4.094-2.308-5.589c-1.48-1.495-3.496-2.361-5.616-2.414zM33.75 11.077c-1.658 0-3.247 0.648-4.419 1.802s-1.831 2.719-1.831 4.351c0 0.326 0.132 0.639 0.366 0.87s0.552 0.36 0.884 0.36 0.649-0.13 0.884-0.36c0.235-0.231 0.366-0.544 0.366-0.87 0-0.73 0.22-1.444 0.632-2.051s0.998-1.080 1.683-1.36c0.685-0.279 1.439-0.353 2.167-0.21s1.396 0.494 1.92 1.011c0.524 0.516 0.882 1.174 1.026 1.891s0.070 1.459-0.213 2.133-0.765 1.251-1.381 1.657c-0.617 0.406-1.342 0.622-2.083 0.622h-32.5c-0.332 0-0.649 0.13-0.884 0.361s-0.366 0.544-0.366 0.87c0 0.326 0.132 0.64 0.366 0.87s0.552 0.36 0.884 0.36h24.375c0.829 0.002 1.623 0.327 2.208 0.906s0.913 1.361 0.911 2.177c-0.002 0.816-0.333 1.598-0.92 2.174s-1.383 0.898-2.212 0.897c-0.746 0.001-1.469-0.259-2.040-0.733s-0.952-1.132-1.078-1.856l-0.012-0.074c-0.023-0.163-0.078-0.32-0.163-0.462s-0.199-0.265-0.333-0.363-0.288-0.168-0.451-0.206c-0.163-0.039-0.332-0.044-0.497-0.017s-0.323 0.086-0.464 0.175c-0.141 0.088-0.263 0.204-0.358 0.339s-0.162 0.288-0.196 0.45c-0.034 0.161-0.035 0.328-0.003 0.489l0.013 0.074c0.222 1.299 0.905 2.479 1.927 3.33s2.317 1.317 3.655 1.317c1.493 0.001 2.926-0.582 3.983-1.621s1.652-2.447 1.655-3.918c0-1.14-0.35-2.198-0.947-3.077h3.447c1.658 0 3.247-0.648 4.419-1.802s1.831-2.719 1.831-4.351-0.658-3.197-1.831-4.351c-1.172-1.154-2.762-1.802-4.419-1.802z"></path>
<path fill="#ffffff" stroke="#101828" d="M19.38 0l0.247-9.997-0.125-0.003-0.125 0 0.002 10zM11.42 6.425l-9.799-1.994-0.003 0.016 9.803 1.978zM11.275 7.143l9.724 2.331 0.042-0.176 0.036-0.178-9.803-1.978zM13.725 7.626l-9.794-2.017-0.038 0.184-0.031 0.185 9.863 1.647zM13.873 6.91v0zM25 7.998h10v-0.025l-10 0.025zM19.375 13.538v10h0.004l-0.004-10zM0 14.769v0zM19.375 16v10h0.121l0.121-0.003-0.241-9.997zM30 17.231v0zM0 22.154v0zM25.625 23.385l0.020-10h-0.020v10zM25.612 29.538l0.020-10-0.027 0 0.007 10zM22.495 26.949l-9.86 1.669 0.003 0.017 0.003 0.017 9.854-1.703zM22.483 26.875l-9.907 1.363 0.021 0.153 0.026 0.153 9.86-1.669zM20.017 27.279l9.86-1.669-0.025-0.149-0.030-0.148-9.805 1.966zM20.030 27.353l-9.86 1.669 0.003 0.017 9.857-1.686zM25.612 32l0.004-10h-0.006l0.002 10zM31.25 26.462l10 0.018v-0.018h-10zM30.303 23.385v-10h-18.892l10.622 15.623 8.27-5.623zM19.378-10c-4.146 0.001-8.183 1.414-11.424 4.030l12.561 15.563c-0.339 0.273-0.74 0.406-1.133 0.406l-0.004-20zM7.953-5.97c-3.244 2.618-5.496 6.287-6.333 10.401l19.598 3.988c-0.1 0.49-0.362 0.899-0.704 1.175l-12.561-15.563zM1.617 4.447l-0.145 0.719 19.605 3.955 0.145-0.719-19.605-3.955zM1.551 4.812c-0.356 1.485-0.405 3.028-0.143 4.534l19.705-3.425c0.205 1.18 0.167 2.39-0.112 3.553l-19.449-4.663zM1.407 9.346c0.262 1.506 0.827 2.936 1.656 4.207l16.753-10.925c0.648 0.993 1.091 2.112 1.296 3.293l-19.705 3.425zM3.063 13.553c0.829 1.271 1.901 2.353 3.148 3.19l11.152-16.602c0.969 0.651 1.806 1.494 2.453 2.487l-16.753 10.925zM6.211 16.744c1.246 0.837 2.642 1.413 4.103 1.701l3.864-19.623c1.133 0.223 2.216 0.67 3.185 1.32l-11.152 16.602zM10.314 18.445c1.461 0.288 2.966 0.283 4.425-0.014l-3.99-19.598c1.131-0.23 2.296-0.234 3.429-0.011l-3.864 19.623zM14.74 18.43c1.46-0.297 2.852-0.882 4.093-1.727l-11.259-16.53c0.965-0.657 2.045-1.111 3.177-1.341l3.99 19.598zM18.832 16.703c1.241-0.845 2.307-1.935 3.127-3.211l-16.824-10.815c0.641-0.997 1.472-1.846 2.437-2.503l11.259 16.53zM21.96 13.492c0.821-1.277 1.377-2.711 1.629-4.219l-19.727-3.295c0.197-1.181 0.633-2.304 1.274-3.302l16.824 10.815zM23.52 9.643l0.147-0.716-19.589-4.034-0.147 0.716 19.589 4.034zM23.666 8.93c-0.232 1.123-0.871 2.083-1.745 2.719l-11.756-16.18c-3.115 2.263-5.301 5.611-6.087 9.421l19.587 4.041zM21.921 11.649c-0.87 0.632-1.924 0.91-2.959 0.808l1.946-19.905c-3.805-0.372-7.632 0.656-10.743 2.916l11.756 16.18zM18.962 12.457c-1.036-0.101-2.029-0.58-2.773-1.387l14.704-13.557c-2.615-2.837-6.178-4.589-9.985-4.961l-1.946 19.905zM16.189 11.070c-0.748-0.811-1.186-1.895-1.189-3.048l20-0.050c-0.010-3.894-1.488-7.619-4.107-10.46l-14.704 13.557zM15 7.998c0-1.233 0.499-2.383 1.335-3.207l14.035 14.248c2.946-2.902 4.63-6.87 4.63-11.041h-20zM16.335 4.791c0.831-0.819 1.926-1.252 3.036-1.252l0.009 20c4.094-0.002 8.050-1.603 10.991-4.5l-14.035-14.248zM19.375 3.538h-18.125v20h18.125v-20zM1.25 3.538c-2.934 0-5.779 1.146-7.9 3.235l14.032 14.251c-1.652 1.627-3.861 2.514-6.132 2.514v-20zM-6.65 6.773c-2.127 2.094-3.35 4.967-3.35 7.996h20c0 2.376-0.96 4.623-2.618 6.255l-14.032-14.251zM-10 14.769c0 3.029 1.224 5.902 3.35 7.996l14.032-14.251c1.658 1.632 2.618 3.879 2.618 6.255h-20zM-6.65 22.765c2.121 2.089 4.966 3.235 7.9 3.235v-20c2.271 0 4.48 0.887 6.132 2.514l-14.032 14.251zM1.25 26h18.125v-20h-18.125v20zM19.616 25.997c4.68-0.113 9.161-2.022 12.478-5.367l-14.203-14.081c0.354-0.357 0.803-0.536 1.244-0.546l0.482 19.994zM32.094 20.63c3.321-3.35 5.208-7.878 5.21-12.624l-20-0.006c0-0.571 0.228-1.088 0.587-1.45l14.203 14.081zM37.303 8.006c0.002-4.747-1.883-9.276-5.202-12.628l-14.212 14.072c-0.358-0.362-0.586-0.88-0.586-1.45l20 0.006zM32.102-4.622c-3.314-3.347-7.794-5.259-12.474-5.375l-0.494 19.994c-0.44-0.011-0.89-0.19-1.243-0.547l14.212-14.072zM33.75 1.077c-4.26 0-8.376 1.665-11.435 4.677l14.032 14.251c-0.715 0.704-1.652 1.072-2.597 1.072v-20zM22.315 5.754c-3.064 3.017-4.815 7.142-4.815 11.477h20c0 1.071-0.433 2.065-1.153 2.774l-14.032-14.251zM17.5 17.231c0 3.029 1.224 5.902 3.35 7.996l14.032-14.251c1.658 1.632 2.618 3.879 2.618 6.255h-20zM20.85 25.227c2.121 2.089 4.966 3.235 7.9 3.235v-20c2.271 0 4.48 0.887 6.132 2.514l-14.032 14.251zM28.75 28.462c2.934 0 5.779-1.146 7.9-3.235l-14.032-14.251c1.653-1.627 3.861-2.514 6.132-2.514v20zM36.65 25.227c2.126-2.094 3.35-4.967 3.35-7.996h-20c0-2.376 0.96-4.623 2.618-6.255l14.032 14.251zM40 17.231c0 1.282-0.387 2.523-1.093 3.564l-16.549-11.231c-1.531 2.255-2.357 4.924-2.357 7.667h20zM38.907 20.795c-0.705 1.039-1.691 1.826-2.815 2.284l-7.553-18.519c-2.495 1.017-4.652 2.751-6.181 5.004l16.549 11.231zM36.091 23.079c-1.123 0.458-2.35 0.575-3.532 0.344l3.844-19.627c-2.637-0.516-5.372-0.253-7.865 0.764l7.553 18.519zM32.56 23.423c-1.183-0.232-2.29-0.807-3.174-1.677l14.032-14.251c-1.933-1.903-4.376-3.182-7.014-3.698l-3.844 19.627zM29.386 21.746c-0.885-0.872-1.506-2.002-1.76-3.255l19.604-3.96c-0.543-2.686-1.878-5.131-3.812-7.036l-14.032 14.251zM27.626 18.491c-0.253-1.254-0.122-2.553 0.371-3.725l18.435 7.755c1.060-2.521 1.341-5.304 0.798-7.991l-19.604 3.96zM27.997 14.766c0.492-1.17 1.315-2.145 2.34-2.819l10.992 16.708c2.259-1.486 4.043-3.614 5.103-6.134l-18.435-7.755zM30.337 11.947c1.024-0.673 2.211-1.024 3.413-1.024v20c2.685 0 5.323-0.783 7.58-2.268l-10.992-16.708zM33.75 10.923h-32.5v20h32.5v-20zM1.25 10.923c-2.934 0-5.779 1.146-7.9 3.235l14.032 14.251c-1.652 1.627-3.861 2.514-6.132 2.514v-20zM-6.65 14.158c-2.127 2.094-3.35 4.967-3.35 7.996h20c0 2.376-0.96 4.623-2.618 6.255l-14.032-14.251zM-10 22.154c0 3.029 1.224 5.902 3.35 7.996l14.032-14.251c1.658 1.632 2.618 3.879 2.618 6.255h-20zM-6.65 30.15c2.121 2.089 4.966 3.235 7.9 3.235v-20c2.271 0 4.48 0.887 6.132 2.514l-14.032 14.251zM1.25 33.385h24.375v-20h-24.375v20zM25.605 33.385c-1.774-0.003-3.504-0.699-4.803-1.983l14.061-14.223c-2.468-2.44-5.787-3.787-9.219-3.794l-0.039 20zM20.803 31.402c-1.304-1.289-2.063-3.068-2.059-4.954l20 0.041c0.007-3.519-1.407-6.864-3.881-9.309l-14.061 14.223zM18.744 26.447c0.004-1.887 0.77-3.662 2.078-4.945l14.004 14.279c2.483-2.435 3.911-5.775 3.918-9.293l-20-0.041zM20.822 21.502c1.303-1.278 3.036-1.967 4.81-1.964l-0.039 20c3.431 0.007 6.755-1.327 9.233-3.757l-14.004-14.279zM25.605 19.538c1.573-0.001 3.118 0.545 4.357 1.574l-12.779 15.385c2.38 1.977 5.37 3.043 8.437 3.041l-0.014-20zM29.962 21.113c1.243 1.032 2.103 2.491 2.387 4.133l-19.708 3.405c0.534 3.092 2.158 5.866 4.542 7.846l12.779-15.385zM32.355 25.28l-0.013-0.074-19.719 3.338 0.012 0.074 19.72-3.338zM32.389 25.512c-0.208-1.51-0.721-2.957-1.502-4.255l-17.136 10.313c-0.61-1.014-1.012-2.147-1.175-3.331l19.813-2.727zM30.887 21.257c-0.781-1.297-1.812-2.416-3.024-3.297l-11.755 16.181c-0.943-0.685-1.747-1.557-2.357-2.571l17.136-10.313zM27.863 17.959c-1.212-0.881-2.583-1.507-4.030-1.848l-4.597 19.465c-1.121-0.265-2.186-0.75-3.128-1.435l11.755-16.181zM23.834 16.111c-1.446-0.342-2.946-0.394-4.411-0.154l3.232 19.737c-1.135 0.186-2.297 0.146-3.418-0.119l4.597-19.465zM19.423 15.958c-1.466 0.24-2.875 0.768-4.144 1.56l10.591 16.966c-0.986 0.616-2.079 1.025-3.215 1.211l-3.232-19.737zM15.279 17.518c-1.269 0.792-2.374 1.834-3.243 3.070l16.361 11.503c-0.679 0.966-1.54 1.777-2.527 2.392l-10.591-16.966zM12.036 20.588c-0.87 1.237-1.484 2.642-1.799 4.132l19.567 4.138c-0.247 1.168-0.728 2.267-1.407 3.233l-16.361-11.503zM10.236 24.721c-0.315 1.491-0.323 3.030-0.024 4.525l19.609-3.933c0.235 1.171 0.229 2.378-0.018 3.546l-19.567-4.138zM10.158 28.948l0.012 0.074 19.72-3.338-0.013-0.074-19.719 3.338zM10.173 29.039c0.628 3.67 2.551 6.969 5.386 9.33l12.796-15.371c0.791 0.659 1.349 1.598 1.532 2.669l-19.714 3.372zM15.559 38.368c2.832 2.357 6.395 3.633 10.055 3.632l-0.004-20c0.983-0 1.957 0.342 2.744 0.997l-12.796 15.371zM25.608 42c4.093 0.002 8.051-1.595 10.995-4.487l-14.016-14.267c0.83-0.816 1.923-1.246 3.030-1.246l-0.009 20zM36.603 37.513c2.95-2.898 4.639-6.863 4.647-11.033l-20-0.036c0.002-1.23 0.502-2.377 1.337-3.198l14.016 14.267zM41.25 26.462c0-3.221-0.996-6.226-2.678-8.7l-16.539 11.245c-0.487-0.716-0.783-1.605-0.783-2.546h20zM30.303 33.385h3.447v-20h-3.447v20zM33.75 33.385c4.26 0 8.376-1.665 11.435-4.677l-14.032-14.251c0.715-0.704 1.652-1.072 2.597-1.072v20zM45.185 28.708c3.064-3.017 4.815-7.142 4.815-11.477h-20c0-1.071 0.433-2.065 1.153-2.774l14.032 14.251zM50 17.231c0-4.335-1.75-8.46-4.815-11.477l-14.032 14.251c-0.72-0.709-1.153-1.704-1.153-2.774h20zM45.185 5.754c-3.059-3.012-7.175-4.677-11.435-4.677v20c-0.945 0-1.882-0.368-2.597-1.072l14.032-14.251z"></path>
</symbol>
<symbol id="icon-bed" viewBox="0 0 32 32">
<path fill="none" stroke="#101828" stroke-linejoin="round" stroke-linecap="round" stroke-miterlimit="4" stroke-width="2.24" d="M3 26v-7c0.003-1.060 0.426-2.076 1.175-2.825s1.765-1.172 2.825-1.175h18c1.060 0.003 2.076 0.426 2.825 1.175s1.172 1.765 1.175 2.825v7M24 15h-18v-6.5c0.002-0.662 0.266-1.297 0.734-1.766s1.103-0.732 1.766-0.734h15c0.662 0.002 1.297 0.266 1.766 0.734s0.732 1.103 0.734 1.766v6.5h-2z"></path>
<path fill="none" stroke="#101828" stroke-linejoin="round" stroke-linecap="round" stroke-miterlimit="4" stroke-width="2.24" d="M3 26v-0.5c0.001-0.397 0.16-0.778 0.441-1.059s0.662-0.44 1.059-0.441h23c0.397 0.001 0.778 0.16 1.059 0.441s0.44 0.662 0.441 1.059v0.5M7 15v-1c0.002-0.53 0.213-1.038 0.587-1.413s0.883-0.586 1.413-0.587h5c0.53 0.002 1.038 0.213 1.413 0.587s0.586 0.883 0.587 1.413M16 14v1M16 14c0.001-0.53 0.213-1.038 0.587-1.413s0.883-0.586 1.413-0.587h5c0.53 0.002 1.038 0.213 1.413 0.587s0.586 0.883 0.587 1.413v1"></path>
</symbol>
<symbol id="icon-kitchen" viewBox="0 0 25 32">
<path fill="none" stroke="#101828" stroke-linejoin="round" stroke-linecap="round" stroke-miterlimit="4" stroke-width="2.6667" d="M22.815 20.444v-17.778c-7.135 6.806-7.441 12.324-7.407 17.778h7.407zM22.815 20.444v8.889h-1.481v-4.444M6.519 4.148v25.185M2.074 4.148v4.444c0 1.179 0.468 2.309 1.302 3.143s1.964 1.302 3.143 1.302c1.179 0 2.309-0.468 3.143-1.302s1.302-1.964 1.302-3.143v-4.444"></path>
</symbol>
<symbol id="icon-petrol" viewBox="0 0 30 32">
<path d="M26.95 8.050l0.017-0.017-6.2-6.2-1.767 1.767 3.517 3.517c-1.567 0.6-2.683 2.1-2.683 3.883 0 0.547 0.108 1.089 0.317 1.595s0.516 0.965 0.903 1.352c0.781 0.781 1.841 1.22 2.946 1.22 0.6 0 1.15-0.133 1.667-0.35v12.017c0 0.442-0.176 0.866-0.488 1.178s-0.737 0.488-1.179 0.488c-0.442 0-0.866-0.176-1.178-0.488s-0.488-0.736-0.488-1.178v-7.5c0-0.884-0.351-1.732-0.976-2.357s-1.473-0.976-2.357-0.976h-1.667v-11.667c0-0.884-0.351-1.732-0.976-2.357s-1.473-0.976-2.357-0.976h-10c-0.884 0-1.732 0.351-2.357 0.976s-0.976 1.473-0.976 2.357v26.667h16.667v-12.5h2.5v8.333c0 1.105 0.439 2.165 1.22 2.946s1.841 1.22 2.946 1.22c0.547 0 1.089-0.108 1.595-0.317s0.965-0.516 1.352-0.903c0.387-0.387 0.694-0.846 0.903-1.352s0.317-1.047 0.317-1.594v-15.833c0-1.15-0.467-2.2-1.217-2.95zM14 18.5v9.167h-10v-11.667h10v2.5zM14 12.667h-10v-8.333h10v8.333zM24 12.667c-0.442 0-0.866-0.176-1.178-0.488s-0.488-0.736-0.488-1.179 0.176-0.866 0.488-1.179c0.312-0.313 0.736-0.488 1.178-0.488s0.866 0.176 1.179 0.488c0.313 0.313 0.488 0.736 0.488 1.179s-0.176 0.866-0.488 1.179c-0.313 0.313-0.737 0.488-1.179 0.488z"></path>
</symbol>
<symbol id="icon-trans" viewBox="0 0 30 32">
<path fill="none" stroke="#101828" stroke-linejoin="round" stroke-linecap="round" stroke-miterlimit="4" stroke-width="2.6667" d="M23.407 14.519h2.222c0.589 0 1.154-0.234 1.571-0.651s0.651-0.982 0.651-1.571-0.234-1.155-0.651-1.571c-0.417-0.417-0.982-0.651-1.571-0.651h-2.222v7.407M23.407 23.407v5.926h1.481c0.786 0 1.54-0.312 2.095-0.868s0.868-1.309 0.868-2.095c0-0.786-0.312-1.539-0.868-2.095s-1.309-0.868-2.095-0.868h-1.481zM2.667 5.63c0 0.786 0.312 1.539 0.868 2.095s1.309 0.868 2.095 0.868c0.786 0 1.539-0.312 2.095-0.868s0.868-1.309 0.868-2.095c0-0.786-0.312-1.539-0.868-2.095s-1.309-0.868-2.095-0.868c-0.786 0-1.539 0.312-2.095 0.868s-0.868 1.309-0.868 2.095z"></path>
<path fill="none" stroke="#101828" stroke-linejoin="round" stroke-linecap="round" stroke-miterlimit="4" stroke-width="2.6667" d="M5.63 8.593v4.444c0 0.393 0.156 0.77 0.434 1.048s0.655 0.434 1.048 0.434h4.444M11.556 14.519v10.37c0 0.393 0.156 0.77 0.434 1.048s0.655 0.434 1.048 0.434h4.444M11.556 14.519h5.926"></path>
</symbol>
<symbol id="icon-adults" viewBox="0 0 46 32">
<path d="M12.952 27.619h-6.286c-0.381 0-0.571-0.191-0.762-0.381s-0.381-0.571-0.191-0.952c1.143-3.238 4-5.143 7.238-5.143 4 0 7.238-3.429 7.238-7.429s-3.238-7.81-7.238-7.81c-4 0-7.238 3.429-7.238 7.619 0 1.905 0.762 3.81 1.905 5.143-2.476 1.333-4.381 3.429-5.524 6.286-0.381 1.333-0.19 3.048 0.762 4.381s2.286 2.095 3.81 2.095h6.286c1.143 0 1.905-0.762 1.905-1.905s-0.762-1.905-1.905-1.905zM9.524 13.524c0-2.095 1.524-3.619 3.429-3.619s3.429 1.714 3.429 3.619c0 2.095-1.524 3.619-3.429 3.619s-3.429-1.714-3.429-3.619z"></path>
<path d="M43.619 23.81c-1.333-3.619-4-6.286-7.048-7.81 1.714-1.524 2.666-3.809 2.666-6.476 0-4.952-3.809-8.952-8.381-8.952s-8.381 4-8.381 8.952c0 2.476 0.952 4.762 2.667 6.476-3.048 1.524-5.714 4.191-7.048 7.81-0.952 1.714-0.571 3.619 0.381 5.143s2.667 2.286 4.381 2.286h15.809c1.714 0 3.429-0.952 4.381-2.286 1.143-1.524 1.333-3.429 0.571-5.143zM26.095 9.714c0-2.857 2.095-5.143 4.571-5.143s4.571 2.286 4.571 5.143-2.095 5.143-4.571 5.143c-2.476 0-4.571-2.476-4.571-5.143zM39.809 26.857c-0.19 0.191-0.571 0.762-1.143 0.762h-15.809c-0.762 0-1.143-0.571-1.143-0.762-0.191-0.19-0.571-0.952-0.19-1.714 1.524-4 5.333-6.667 9.333-6.667s7.809 2.667 9.333 6.667c0.19 0.762-0.19 1.524-0.381 1.714z"></path>
</symbol>
<symbol id="icon-map-pin" viewBox="0 0 29 32">
<path fill="none" stroke="#101828" stroke-linejoin="round" stroke-linecap="round" stroke-miterlimit="4" stroke-width="2.4" d="M26.4 13.333c0 9.333-12 17.333-12 17.333s-12-8-12-17.333c0-3.183 1.264-6.235 3.515-8.485s5.303-3.515 8.485-3.515c3.183 0 6.235 1.264 8.485 3.515s3.515 5.303 3.515 8.485z"></path>
<path fill="none" stroke="#101828" stroke-linejoin="round" stroke-linecap="round" stroke-miterlimit="4" stroke-width="2.4" d="M14.4 17.333c2.209 0 4-1.791 4-4s-1.791-4-4-4c-2.209 0-4 1.791-4 4s1.791 4 4 4z"></path>
</symbol>
<symbol id="icon-line" viewBox="0 0 6880 32">
<path  stroke="#101828" stroke-opacity="0.1" stroke-linejoin="miter" stroke-linecap="butt" stroke-miterlimit="4" stroke-width="16" d="M0 16h6880"></path>
</symbol>
<symbol id="icon-Vector" viewBox="0 0 902 2">
<path stroke="#101828" stroke-opacity="0.2" stroke-linejoin="miter" stroke-linecap="butt" stroke-miterlimit="4" stroke-width="16" d="M0 16h14432"></path>
</symbol>
<symbol id="icon-TV" width="32" height="33" viewBox="0 0 32 33" fill="none">
<path d="M24 26.5H8C5.784 26.5 4 24.716 4 22.5V12.5C4 10.284 5.784 8.5 8 8.5H24C26.216 8.5 28 10.284 28 12.5V22.5C28 24.716 26.216 26.5 24 26.5Z" stroke="#101828" stroke-width="1.8" stroke-linecap="round" stroke-linejoin="round"/>
<path d="M12 30.5H20" stroke="#101828" stroke-width="1.8" stroke-linecap="round" stroke-linejoin="round"/>
<path d="M16 8.5L22 2.5" stroke="#101828" stroke-width="1.8" stroke-linecap="round" stroke-linejoin="round"/>
<path d="M16 8.5L10 2.5" stroke="#101828" stroke-width="1.8" stroke-linecap="round" stroke-linejoin="round"/>
</symbol>
</defs>
</svg>
